%TF.GenerationSoftware,KiCad,Pcbnew,9.0.4*%
%TF.CreationDate,2025-10-02T00:25:36-07:00*%
%TF.ProjectId,PowerBoard,506f7765-7242-46f6-9172-642e6b696361,1*%
%TF.SameCoordinates,Original*%
%TF.FileFunction,Soldermask,Bot*%
%TF.FilePolarity,Negative*%
%FSLAX46Y46*%
G04 Gerber Fmt 4.6, Leading zero omitted, Abs format (unit mm)*
G04 Created by KiCad (PCBNEW 9.0.4) date 2025-10-02 00:25:36*
%MOMM*%
%LPD*%
G01*
G04 APERTURE LIST*
%ADD10C,0.499999*%
%ADD11C,6.000000*%
%ADD12C,5.600000*%
G04 APERTURE END LIST*
D10*
%TO.C,U12*%
X161006446Y-106506750D03*
X161006446Y-105706751D03*
X161006446Y-104906750D03*
X160146445Y-106506750D03*
X160146445Y-105706751D03*
X160146445Y-104906750D03*
X158966447Y-106506750D03*
X158966447Y-105706751D03*
X158966447Y-104906750D03*
X158106446Y-106506750D03*
X158106446Y-105706751D03*
X158106446Y-104906750D03*
%TD*%
%TO.C,U14*%
X134006446Y-104906750D03*
X134006446Y-105706751D03*
X134006446Y-106506750D03*
X134866447Y-104906750D03*
X134866447Y-105706751D03*
X134866447Y-106506750D03*
X136046445Y-104906750D03*
X136046445Y-105706751D03*
X136046445Y-106506750D03*
X136906446Y-104906750D03*
X136906446Y-105706751D03*
X136906446Y-106506750D03*
%TD*%
D11*
%TO.C,TP19*%
X177000000Y-109833333D03*
%TD*%
%TO.C,TP24*%
X177000000Y-95666667D03*
%TD*%
%TO.C,*%
X177000000Y-81500000D03*
%TD*%
%TO.C,TP20*%
X118500000Y-109833333D03*
%TD*%
%TO.C,TP9*%
X136500000Y-124000000D03*
%TD*%
D12*
%TO.C,H1*%
X112500000Y-77000000D03*
%TD*%
D11*
%TO.C,TP11*%
X136500000Y-81500000D03*
%TD*%
%TO.C,TP12*%
X118500000Y-81500000D03*
%TD*%
%TO.C,TP7*%
X160500000Y-124000000D03*
%TD*%
D12*
%TO.C,H7*%
X183500000Y-128000000D03*
%TD*%
%TO.C,H2*%
X183500000Y-77000000D03*
%TD*%
D11*
%TO.C,TP15*%
X118500000Y-124000000D03*
%TD*%
%TO.C,TP8*%
X148500000Y-124000000D03*
%TD*%
%TO.C,TP11*%
X160500000Y-81500000D03*
%TD*%
D12*
%TO.C,H3*%
X112500000Y-128000000D03*
%TD*%
D11*
%TO.C,TP14*%
X177000000Y-124000000D03*
%TD*%
%TO.C,TP25*%
X118500000Y-95666667D03*
%TD*%
M02*
