M48
; DRILL file {KiCad 9.0.4} date 2025-10-02T00:25:32-0700
; FORMAT={-:-/ absolute / metric / decimal}
; #@! TF.CreationDate,2025-10-02T00:25:32-07:00
; #@! TF.GenerationSoftware,Kicad,Pcbnew,9.0.4
; #@! TF.FileFunction,Plated,1,4,PTH
FMAT,2
METRIC
; #@! TA.AperFunction,Plated,PTH,ComponentDrill
T1C0.203
; #@! TA.AperFunction,Plated,PTH,ViaDrill
T2C0.300
; #@! TA.AperFunction,Plated,PTH,ComponentDrill
T3C3.200
; #@! TA.AperFunction,Plated,PTH,ComponentDrill
T4C5.000
%
G90
G05
T1
X134.006Y-104.907
X134.006Y-105.707
X134.006Y-106.507
X134.866Y-104.907
X134.866Y-105.707
X134.866Y-106.507
X136.046Y-104.907
X136.046Y-105.707
X136.046Y-106.507
X136.906Y-104.907
X136.906Y-105.707
X136.906Y-106.507
X158.106Y-104.907
X158.106Y-105.707
X158.106Y-106.507
X158.966Y-104.907
X158.966Y-105.707
X158.966Y-106.507
X160.146Y-104.907
X160.146Y-105.707
X160.146Y-106.507
X161.006Y-104.907
X161.006Y-105.707
X161.006Y-106.507
T2
X123.9Y-103.3
X125.5Y-111.5
X125.8Y-98.0
X125.8Y-99.0
X125.9Y-97.0
X126.5Y-93.1
X126.9Y-113.2
X127.1Y-101.6
X127.1Y-110.4
X128.0Y-102.9
X128.0Y-104.6
X128.0Y-106.1
X128.0Y-109.3
X129.116Y-94.1
X134.1Y-111.5
X139.5Y-103.4
X141.1Y-101.8
X145.8Y-98.1
X145.8Y-101.3
X145.8Y-103.0
X145.9Y-90.9
X148.0Y-103.3
X149.6Y-98.0
X149.6Y-99.0
X149.6Y-111.5
X150.0Y-97.0
X150.5Y-93.1
X151.0Y-113.2
X151.2Y-101.6
X151.2Y-110.4
X151.5Y-100.1
X152.1Y-102.9
X152.1Y-104.6
X152.1Y-106.1
X152.1Y-109.3
X153.216Y-94.1
X158.2Y-111.5
X163.6Y-103.4
X165.2Y-101.8
X169.9Y-98.1
X169.9Y-101.3
X169.9Y-103.0
X170.0Y-90.9
X170.8Y-100.1
T3
X112.5Y-77.0
X112.5Y-128.0
X183.5Y-77.0
X183.5Y-128.0
T4
X118.5Y-81.5
X118.5Y-95.667
X118.5Y-109.833
X118.5Y-124.0
X136.5Y-81.5
X136.5Y-124.0
X148.5Y-124.0
X160.5Y-81.5
X160.5Y-124.0
X177.0Y-81.5
X177.0Y-95.667
X177.0Y-109.833
X177.0Y-124.0
M30
