%TF.GenerationSoftware,KiCad,Pcbnew,9.0.4*%
%TF.CreationDate,2025-10-02T17:53:38-07:00*%
%TF.ProjectId,PowerBoard,506f7765-7242-46f6-9172-642e6b696361,1*%
%TF.SameCoordinates,Original*%
%TF.FileFunction,Soldermask,Top*%
%TF.FilePolarity,Negative*%
%FSLAX46Y46*%
G04 Gerber Fmt 4.6, Leading zero omitted, Abs format (unit mm)*
G04 Created by KiCad (PCBNEW 9.0.4) date 2025-10-02 17:53:38*
%MOMM*%
%LPD*%
G01*
G04 APERTURE LIST*
G04 Aperture macros list*
%AMRoundRect*
0 Rectangle with rounded corners*
0 $1 Rounding radius*
0 $2 $3 $4 $5 $6 $7 $8 $9 X,Y pos of 4 corners*
0 Add a 4 corners polygon primitive as box body*
4,1,4,$2,$3,$4,$5,$6,$7,$8,$9,$2,$3,0*
0 Add four circle primitives for the rounded corners*
1,1,$1+$1,$2,$3*
1,1,$1+$1,$4,$5*
1,1,$1+$1,$6,$7*
1,1,$1+$1,$8,$9*
0 Add four rect primitives between the rounded corners*
20,1,$1+$1,$2,$3,$4,$5,0*
20,1,$1+$1,$4,$5,$6,$7,0*
20,1,$1+$1,$6,$7,$8,$9,0*
20,1,$1+$1,$8,$9,$2,$3,0*%
%AMFreePoly0*
4,1,13,0.175001,0.249999,0.175001,-0.475001,0.125001,-0.525001,-0.074999,-0.525001,-0.124998,-0.475001,-0.124998,-0.050000,-0.224998,0.049999,-0.474998,0.049999,-0.525000,0.099999,-0.524998,0.249999,-0.474998,0.299999,0.125001,0.299999,0.175001,0.249999,0.175001,0.249999,$1*%
%AMFreePoly1*
4,1,17,0.099997,0.600002,0.099997,0.200003,0.199999,0.100003,0.774997,0.100003,0.824999,0.050003,0.824997,-0.099997,0.774997,-0.149999,-0.025002,-0.149999,-0.054092,-0.120907,-0.075001,-0.112247,-0.112247,-0.075001,-0.120907,-0.054092,-0.150003,-0.024998,-0.150003,0.600002,-0.100003,0.650002,0.049997,0.650002,0.099997,0.600002,0.099997,0.600002,$1*%
%AMFreePoly2*
4,1,9,2.975000,-2.350000,1.425000,-2.350000,1.425000,-2.100000,-1.650000,-2.100000,-1.650000,2.100000,1.425000,2.100000,1.425000,2.350000,2.975000,2.350000,2.975000,-2.350000,2.975000,-2.350000,$1*%
G04 Aperture macros list end*
%ADD10C,0.000000*%
%ADD11RoundRect,0.225000X-0.225000X-0.375000X0.225000X-0.375000X0.225000X0.375000X-0.225000X0.375000X0*%
%ADD12RoundRect,0.200000X-0.200000X-0.275000X0.200000X-0.275000X0.200000X0.275000X-0.200000X0.275000X0*%
%ADD13R,0.650001X0.249999*%
%ADD14R,0.700001X0.249999*%
%ADD15FreePoly0,180.000000*%
%ADD16R,0.249999X0.750001*%
%ADD17FreePoly1,180.000000*%
%ADD18R,0.249999X0.599999*%
%ADD19R,1.300000X0.249999*%
%ADD20C,0.499999*%
%ADD21R,3.400001X2.350000*%
%ADD22RoundRect,0.225000X0.225000X0.250000X-0.225000X0.250000X-0.225000X-0.250000X0.225000X-0.250000X0*%
%ADD23RoundRect,0.200000X0.200000X0.275000X-0.200000X0.275000X-0.200000X-0.275000X0.200000X-0.275000X0*%
%ADD24C,6.000000*%
%ADD25RoundRect,0.150000X-0.512500X-0.150000X0.512500X-0.150000X0.512500X0.150000X-0.512500X0.150000X0*%
%ADD26C,5.600000*%
%ADD27RoundRect,0.250000X0.312500X0.625000X-0.312500X0.625000X-0.312500X-0.625000X0.312500X-0.625000X0*%
%ADD28RoundRect,0.200000X-0.053033X0.335876X-0.335876X0.053033X0.053033X-0.335876X0.335876X-0.053033X0*%
%ADD29RoundRect,0.225000X-0.250000X0.225000X-0.250000X-0.225000X0.250000X-0.225000X0.250000X0.225000X0*%
%ADD30FreePoly2,90.000000*%
%ADD31RoundRect,0.175000X-0.175000X-0.400000X0.175000X-0.400000X0.175000X0.400000X-0.175000X0.400000X0*%
%ADD32RoundRect,0.225000X0.250000X-0.225000X0.250000X0.225000X-0.250000X0.225000X-0.250000X-0.225000X0*%
%ADD33RoundRect,0.250000X1.000000X0.900000X-1.000000X0.900000X-1.000000X-0.900000X1.000000X-0.900000X0*%
%ADD34RoundRect,0.200000X-0.275000X0.200000X-0.275000X-0.200000X0.275000X-0.200000X0.275000X0.200000X0*%
%ADD35RoundRect,0.250000X0.475000X-0.250000X0.475000X0.250000X-0.475000X0.250000X-0.475000X-0.250000X0*%
%ADD36RoundRect,0.200000X0.275000X-0.200000X0.275000X0.200000X-0.275000X0.200000X-0.275000X-0.200000X0*%
%ADD37RoundRect,0.162500X0.447500X0.162500X-0.447500X0.162500X-0.447500X-0.162500X0.447500X-0.162500X0*%
G04 APERTURE END LIST*
D10*
%TO.C,U12*%
G36*
X157406445Y-102981750D02*
G01*
X157406445Y-103331750D01*
X157456445Y-103381752D01*
X157606445Y-103381749D01*
X157656447Y-103331752D01*
X157656447Y-102981750D01*
X157706447Y-102931750D01*
X157856447Y-102931750D01*
X157906447Y-102981750D01*
X157906447Y-103631751D01*
X157781446Y-103781751D01*
X156406445Y-103781751D01*
X156356447Y-103731751D01*
X156356447Y-103431752D01*
X156406447Y-103381752D01*
X157106448Y-103381752D01*
X157156446Y-103331752D01*
X157156446Y-102981750D01*
X157206446Y-102931750D01*
X157356448Y-102931750D01*
X157406445Y-102981750D01*
G37*
G36*
X159906445Y-102981750D02*
G01*
X159906445Y-103331750D01*
X159956445Y-103381749D01*
X160106445Y-103381749D01*
X160156445Y-103331750D01*
X160156445Y-102981750D01*
X160206447Y-102931750D01*
X160306447Y-102931750D01*
X160356447Y-102981750D01*
X160356444Y-103331750D01*
X160406447Y-103381749D01*
X160556447Y-103381749D01*
X160606444Y-103331750D01*
X160606444Y-102981750D01*
X160656444Y-102931750D01*
X160756446Y-102931750D01*
X160806446Y-102981750D01*
X160806446Y-103331750D01*
X160856446Y-103381749D01*
X161006446Y-103381749D01*
X161056446Y-103331750D01*
X161056446Y-102981750D01*
X161106445Y-102931750D01*
X161206445Y-102931750D01*
X161256445Y-102981750D01*
X161256445Y-103556750D01*
X161131447Y-103681749D01*
X159831447Y-103681749D01*
X159706446Y-103556750D01*
X159706446Y-102981750D01*
X159756446Y-102931750D01*
X159856445Y-102931750D01*
X159906445Y-102981750D01*
G37*
G36*
X162706445Y-107556750D02*
G01*
X162756447Y-107606747D01*
X162756445Y-107756750D01*
X162706445Y-107806749D01*
X162356445Y-107806749D01*
X162306446Y-107856749D01*
X162306446Y-108281750D01*
X162256446Y-108331750D01*
X162106446Y-108331750D01*
X162056446Y-108281750D01*
X162056446Y-107931750D01*
X162006446Y-107881751D01*
X161856446Y-107881751D01*
X161806447Y-107931750D01*
X161806447Y-108281750D01*
X161756447Y-108331750D01*
X161606444Y-108331750D01*
X161556445Y-108281750D01*
X161556445Y-107931750D01*
X161506447Y-107881751D01*
X161356447Y-107881751D01*
X161306445Y-107931750D01*
X161306445Y-108281750D01*
X161256445Y-108331750D01*
X161106445Y-108331750D01*
X161056446Y-108281750D01*
X161056446Y-107931750D01*
X161006446Y-107881751D01*
X160856446Y-107881751D01*
X160806446Y-107931750D01*
X160806446Y-108281750D01*
X160756446Y-108331750D01*
X160606446Y-108331750D01*
X160556447Y-108281750D01*
X160556447Y-107606747D01*
X160606446Y-107556747D01*
X162706445Y-107556750D01*
G37*
%TO.C,U14*%
G36*
X133306445Y-102981750D02*
G01*
X133306445Y-103331750D01*
X133356445Y-103381752D01*
X133506445Y-103381749D01*
X133556447Y-103331752D01*
X133556447Y-102981750D01*
X133606447Y-102931750D01*
X133756447Y-102931750D01*
X133806447Y-102981750D01*
X133806447Y-103631751D01*
X133681446Y-103781751D01*
X132306445Y-103781751D01*
X132256447Y-103731751D01*
X132256447Y-103431752D01*
X132306447Y-103381752D01*
X133006448Y-103381752D01*
X133056446Y-103331752D01*
X133056446Y-102981750D01*
X133106446Y-102931750D01*
X133256448Y-102931750D01*
X133306445Y-102981750D01*
G37*
G36*
X135806445Y-102981750D02*
G01*
X135806445Y-103331750D01*
X135856445Y-103381749D01*
X136006445Y-103381749D01*
X136056445Y-103331750D01*
X136056445Y-102981750D01*
X136106447Y-102931750D01*
X136206447Y-102931750D01*
X136256447Y-102981750D01*
X136256444Y-103331750D01*
X136306447Y-103381749D01*
X136456447Y-103381749D01*
X136506444Y-103331750D01*
X136506444Y-102981750D01*
X136556444Y-102931750D01*
X136656446Y-102931750D01*
X136706446Y-102981750D01*
X136706446Y-103331750D01*
X136756446Y-103381749D01*
X136906446Y-103381749D01*
X136956446Y-103331750D01*
X136956446Y-102981750D01*
X137006445Y-102931750D01*
X137106445Y-102931750D01*
X137156445Y-102981750D01*
X137156445Y-103556750D01*
X137031447Y-103681749D01*
X135731447Y-103681749D01*
X135606446Y-103556750D01*
X135606446Y-102981750D01*
X135656446Y-102931750D01*
X135756445Y-102931750D01*
X135806445Y-102981750D01*
G37*
G36*
X138606445Y-107556750D02*
G01*
X138656447Y-107606747D01*
X138656445Y-107756750D01*
X138606445Y-107806749D01*
X138256445Y-107806749D01*
X138206446Y-107856749D01*
X138206446Y-108281750D01*
X138156446Y-108331750D01*
X138006446Y-108331750D01*
X137956446Y-108281750D01*
X137956446Y-107931750D01*
X137906446Y-107881751D01*
X137756446Y-107881751D01*
X137706447Y-107931750D01*
X137706447Y-108281750D01*
X137656447Y-108331750D01*
X137506444Y-108331750D01*
X137456445Y-108281750D01*
X137456445Y-107931750D01*
X137406447Y-107881751D01*
X137256447Y-107881751D01*
X137206445Y-107931750D01*
X137206445Y-108281750D01*
X137156445Y-108331750D01*
X137006445Y-108331750D01*
X136956446Y-108281750D01*
X136956446Y-107931750D01*
X136906446Y-107881751D01*
X136756446Y-107881751D01*
X136706446Y-107931750D01*
X136706446Y-108281750D01*
X136656446Y-108331750D01*
X136506446Y-108331750D01*
X136456447Y-108281750D01*
X136456447Y-107606747D01*
X136506446Y-107556747D01*
X138606445Y-107556750D01*
G37*
%TD*%
D11*
%TO.C,D12*%
X165391447Y-90881750D03*
X168691447Y-90881750D03*
%TD*%
D12*
%TO.C,R52*%
X128916447Y-107731750D03*
X130566447Y-107731750D03*
%TD*%
D13*
%TO.C,U12*%
X162431447Y-106131749D03*
X162431447Y-105631750D03*
X162431447Y-105131751D03*
X162431447Y-104631749D03*
D14*
X162406445Y-104131750D03*
D15*
X162231447Y-103456751D03*
D16*
X159331445Y-103306751D03*
X158281445Y-103306751D03*
D13*
X156681445Y-104706751D03*
X156681445Y-105206750D03*
X156681445Y-105706751D03*
X156681445Y-106206750D03*
X156681445Y-106706749D03*
X156681445Y-107206751D03*
D17*
X157181444Y-107681748D03*
D18*
X157706447Y-108031750D03*
X158206446Y-108031750D03*
X158706445Y-108031750D03*
X159206447Y-108031750D03*
D19*
X162106446Y-107181749D03*
D20*
X161006446Y-106506750D03*
X161006446Y-105706751D03*
X161006446Y-104906750D03*
X160146445Y-106506750D03*
X160146445Y-105706751D03*
X160146445Y-104906750D03*
D21*
X159556446Y-105706751D03*
D20*
X158966447Y-106506750D03*
X158966447Y-105706751D03*
X158966447Y-104906750D03*
X158106446Y-106506750D03*
X158106446Y-105706751D03*
X158106446Y-104906750D03*
%TD*%
D22*
%TO.C,C56*%
X154616447Y-106131750D03*
X153066447Y-106131750D03*
%TD*%
D23*
%TO.C,R51*%
X153266447Y-95100000D03*
X151616447Y-95100000D03*
%TD*%
D24*
%TO.C,TP9*%
X136500000Y-124000000D03*
%TD*%
D25*
%TO.C,U13*%
X151241447Y-97056750D03*
X151241447Y-98006750D03*
X151241447Y-98956750D03*
X153516447Y-98956750D03*
X153516447Y-98006750D03*
X153516447Y-97056750D03*
%TD*%
D26*
%TO.C,H1*%
X112500000Y-77000000D03*
%TD*%
D11*
%TO.C,D16*%
X141291447Y-90881750D03*
X144591447Y-90881750D03*
%TD*%
D27*
%TO.C,R63*%
X129741447Y-90806750D03*
X126816447Y-90806750D03*
%TD*%
D24*
%TO.C,TP11*%
X136500000Y-81500000D03*
%TD*%
%TO.C,TP12*%
X118500000Y-81500000D03*
%TD*%
D28*
%TO.C,R110*%
X154300000Y-112500000D03*
X153133274Y-113666726D03*
%TD*%
D23*
%TO.C,C59*%
X154666447Y-104531750D03*
X153016447Y-104531750D03*
%TD*%
D29*
%TO.C,C68*%
X141141447Y-106750000D03*
X141141447Y-108300000D03*
%TD*%
D12*
%TO.C,R41*%
X149550000Y-104531750D03*
X151200000Y-104531750D03*
%TD*%
D22*
%TO.C,C66*%
X130516447Y-102931750D03*
X128966447Y-102931750D03*
%TD*%
D30*
%TO.C,Q3*%
X159521447Y-91400000D03*
D31*
X161431447Y-94670000D03*
X157611447Y-94670000D03*
X158881447Y-94670000D03*
X160161447Y-94670000D03*
%TD*%
D30*
%TO.C,Q4*%
X135421447Y-91400000D03*
D31*
X137331447Y-94670000D03*
X133511447Y-94670000D03*
X134781447Y-94670000D03*
X136061447Y-94670000D03*
%TD*%
D32*
%TO.C,C69*%
X144541447Y-104606750D03*
X144541447Y-103056750D03*
%TD*%
D33*
%TO.C,D13*%
X144941447Y-111431750D03*
X140641447Y-111431750D03*
%TD*%
D23*
%TO.C,R59*%
X127100000Y-102931750D03*
X125450000Y-102931750D03*
%TD*%
D27*
%TO.C,R50*%
X153841447Y-90806750D03*
X150916447Y-90806750D03*
%TD*%
D22*
%TO.C,C65*%
X127050000Y-107731750D03*
X125500000Y-107731750D03*
%TD*%
D23*
%TO.C,R46*%
X151200000Y-102931750D03*
X149550000Y-102931750D03*
%TD*%
%TO.C,R42*%
X151200000Y-106131750D03*
X149550000Y-106131750D03*
%TD*%
D34*
%TO.C,R48*%
X167041447Y-106700000D03*
X167041447Y-108350000D03*
%TD*%
D24*
%TO.C,TP7*%
X160500000Y-124000000D03*
%TD*%
D26*
%TO.C,H7*%
X183500000Y-128000000D03*
%TD*%
D22*
%TO.C,C58*%
X154616447Y-102931750D03*
X153066447Y-102931750D03*
%TD*%
D35*
%TO.C,C62*%
X165241447Y-104781750D03*
X165241447Y-102881750D03*
%TD*%
D23*
%TO.C,R56*%
X130566447Y-101331750D03*
X128916447Y-101331750D03*
%TD*%
D24*
%TO.C,*%
X177000000Y-81500000D03*
%TD*%
D25*
%TO.C,U15*%
X127141447Y-97056750D03*
X127141447Y-98006750D03*
X127141447Y-98956750D03*
X129416447Y-98956750D03*
X129416447Y-98006750D03*
X129416447Y-97056750D03*
%TD*%
D12*
%TO.C,R44*%
X167016447Y-101331750D03*
X168666447Y-101331750D03*
%TD*%
D36*
%TO.C,R49*%
X167041447Y-104656750D03*
X167041447Y-103006750D03*
%TD*%
D23*
%TO.C,R55*%
X127100000Y-106131750D03*
X125450000Y-106131750D03*
%TD*%
D26*
%TO.C,H2*%
X183500000Y-77000000D03*
%TD*%
D37*
%TO.C,Q42*%
X175000000Y-101950000D03*
X175000000Y-100050000D03*
X172380000Y-101000000D03*
%TD*%
D12*
%TO.C,R57*%
X142916447Y-101331750D03*
X144566447Y-101331750D03*
%TD*%
D24*
%TO.C,TP15*%
X118500000Y-124000000D03*
%TD*%
D28*
%TO.C,R115*%
X153000000Y-111200000D03*
X151833274Y-112366726D03*
%TD*%
D23*
%TO.C,R40*%
X154650000Y-109331750D03*
X153000000Y-109331750D03*
%TD*%
D28*
%TO.C,R111*%
X130200000Y-112500000D03*
X129033274Y-113666726D03*
%TD*%
D24*
%TO.C,TP24*%
X177000000Y-95666667D03*
%TD*%
%TO.C,TP8*%
X148500000Y-124000000D03*
%TD*%
D12*
%TO.C,R58*%
X125450000Y-109300000D03*
X127100000Y-109300000D03*
%TD*%
D24*
%TO.C,TP19*%
X177000000Y-109833333D03*
%TD*%
D34*
%TO.C,R60*%
X144541447Y-106700000D03*
X144541447Y-108350000D03*
%TD*%
D24*
%TO.C,TP20*%
X118500000Y-109833333D03*
%TD*%
D11*
%TO.C,D11*%
X165391447Y-98081750D03*
X168691447Y-98081750D03*
%TD*%
D24*
%TO.C,TP11*%
X160500000Y-81500000D03*
%TD*%
D32*
%TO.C,C61*%
X168641447Y-104606750D03*
X168641447Y-103056750D03*
%TD*%
D13*
%TO.C,U14*%
X138331447Y-106131749D03*
X138331447Y-105631750D03*
X138331447Y-105131751D03*
X138331447Y-104631749D03*
D14*
X138306445Y-104131750D03*
D15*
X138131447Y-103456751D03*
D16*
X135231445Y-103306751D03*
X134181445Y-103306751D03*
D13*
X132581445Y-104706751D03*
X132581445Y-105206750D03*
X132581445Y-105706751D03*
X132581445Y-106206750D03*
X132581445Y-106706749D03*
X132581445Y-107206751D03*
D17*
X133081444Y-107681748D03*
D18*
X133606447Y-108031750D03*
X134106446Y-108031750D03*
X134606445Y-108031750D03*
X135106447Y-108031750D03*
D19*
X138006446Y-107181749D03*
D20*
X136906446Y-106506750D03*
X136906446Y-105706751D03*
X136906446Y-104906750D03*
X136046445Y-106506750D03*
X136046445Y-105706751D03*
X136046445Y-104906750D03*
D21*
X135456446Y-105706751D03*
D20*
X134866447Y-106506750D03*
X134866447Y-105706751D03*
X134866447Y-104906750D03*
X134006446Y-106506750D03*
X134006446Y-105706751D03*
X134006446Y-104906750D03*
%TD*%
D22*
%TO.C,C71*%
X129116447Y-93100000D03*
X127566447Y-93100000D03*
%TD*%
D12*
%TO.C,R39*%
X153016447Y-107731750D03*
X154666447Y-107731750D03*
%TD*%
D23*
%TO.C,R43*%
X154666447Y-101331750D03*
X153016447Y-101331750D03*
%TD*%
D26*
%TO.C,H3*%
X112500000Y-128000000D03*
%TD*%
D33*
%TO.C,D14*%
X145291447Y-94481750D03*
X140991447Y-94481750D03*
%TD*%
D35*
%TO.C,C70*%
X141141447Y-104781750D03*
X141141447Y-102881750D03*
%TD*%
D23*
%TO.C,C67*%
X130566447Y-104531750D03*
X128916447Y-104531750D03*
%TD*%
D12*
%TO.C,R54*%
X125450000Y-104531750D03*
X127100000Y-104531750D03*
%TD*%
D23*
%TO.C,R53*%
X130550000Y-109331750D03*
X128900000Y-109331750D03*
%TD*%
D12*
%TO.C,R45*%
X149550000Y-109300000D03*
X151200000Y-109300000D03*
%TD*%
D22*
%TO.C,C63*%
X153216447Y-93100000D03*
X151666447Y-93100000D03*
%TD*%
D29*
%TO.C,C60*%
X165241447Y-106750000D03*
X165241447Y-108300000D03*
%TD*%
D11*
%TO.C,D15*%
X141291447Y-98081750D03*
X144591447Y-98081750D03*
%TD*%
D24*
%TO.C,TP14*%
X177000000Y-124000000D03*
%TD*%
D23*
%TO.C,R64*%
X129166447Y-95100000D03*
X127516447Y-95100000D03*
%TD*%
D28*
%TO.C,R116*%
X128900000Y-111200000D03*
X127733274Y-112366726D03*
%TD*%
D24*
%TO.C,TP25*%
X118500000Y-95666667D03*
%TD*%
D34*
%TO.C,R47*%
X168641447Y-106700000D03*
X168641447Y-108350000D03*
%TD*%
D37*
%TO.C,Q44*%
X124410000Y-100900000D03*
X124410000Y-99000000D03*
X121790000Y-99950000D03*
%TD*%
D33*
%TO.C,D10*%
X169391447Y-94481750D03*
X165091447Y-94481750D03*
%TD*%
D36*
%TO.C,R62*%
X142941447Y-104656750D03*
X142941447Y-103006750D03*
%TD*%
D33*
%TO.C,D9*%
X169041447Y-111431750D03*
X164741447Y-111431750D03*
%TD*%
D22*
%TO.C,C64*%
X130516447Y-106131750D03*
X128966447Y-106131750D03*
%TD*%
%TO.C,C57*%
X151150000Y-107731750D03*
X149600000Y-107731750D03*
%TD*%
D34*
%TO.C,R61*%
X142941447Y-106700000D03*
X142941447Y-108350000D03*
%TD*%
M02*
